<svg viewBox="0 0 100 100" xmlns="http://www.w3.org/2000/svg"><g stroke="#e8c348" stroke-width="2"><path d="m39.7 16.8c-8.2 2.2-13.6 10.2-11.5 18.5l9.6 35.6c2.2 8.2 10.2 13.6 18.5 11.5 8.2-2.2 13.6-10.2 11.5-18.5l-9.6-35.6c.2-8.2-10.3-13.7-18.5-11.5z" fill="#f5d76e"/><path d="m51.8 17.7c-6.1-1.5-12.5 1.2-15.2 6.5l-8.8 17.3c-2.7 5.3-.7 11.8 4.1 14.8 6.1 3.1 13.5.2 16.2-5.1l8.8-17.3c3.2-7.9 1-14.3-5.1-16.2z" fill="#ffc300"/><path d="m42.3 18.7c-4.4-1-8.8.7-10.7 4.2l-.4 3.1c-1.9 3.5-.2 7.9 3.5 9.7 4.4 1 9.7-.5 11.6-4 1.2-5.1.4-12-4-13z" fill="#ff5733"/></g></svg>