<svg xmlns="http://www.w3.org/2000/svg" viewBox="0 0 100 100">
  <!-- Cherry stem -->
  <path fill="#7A4F3B" d="M53.6,18.4c-1.8-0.8-3.6-1.2-5.4-1c-1.4,0.1-2.8,0.6-4,1.4c-1.3,0.9-2.2,2.2-2.7,3.7c-0.2,0.7-0.2,1.4,0,2.1c0.4,1.6,1.3,3,2.7,3.9c1.1,0.7,2.4,1.1,3.7,1.2c1.7,0.1,3.5-0.2,5-1c1.1-0.6,1.8-1.7,2.2-2.9c0.2-0.6,0.3-1.2,0.3-1.8C56.1,21.3,55,19.3,53.6,18.4z"/>
  
  <!-- Cherry body -->
  <circle fill="#E21D42" cx="50" cy="50" r="40"/>
  
  <!-- Cherry highlight -->
  <circle fill="#F9CACA" cx="60" cy="42" r="15"/>
</svg>
